# xmcd
#
# Track frame offsets:
#	150
#	45804
#	95408
#	143609
#	166658
#	195273
#	258949
#
# Disc length: 3971 seconds
#
# Revision: 1
# Processed by: cddbd v1.5.2PL0 Copyright (c) Steve Scherf et al.
# Submitted via: audiograbber 1.83.01
#
DISCID=450f8107
DTITLE=Grateful Dead - 78-12-19A Memorial Coliseum, State Fairgrounds, Jackson 
DTITLE=MS
DYEAR=1900
DGENRE=
TTITLE0=Lazy Lightning > Supplication
TTITLE1=Scarlet Begonias
TTITLE2=Fire On The Mountain
TTITLE3=Promised Land
TTITLE4=Stagger Lee
TTITLE5=Truckin'
TTITLE6=Drums
EXTD=
EXTT0=
EXTT1=
EXTT2=
EXTT3=
EXTT4=
EXTT5=
EXTT6=
PLAYORDER=
